<?xml version="1.0" encoding="UTF-8" standalone="no"?>
<!-- Created with Inkscape (http://www.inkscape.org/) -->

<svg
   width="104.10356mm"
   height="104.10356mm"
   viewBox="0 0 104.10356 104.10356"
   version="1.1"
   id="svg1"
   xml:space="preserve"
   inkscape:version="1.3.2 (091e20ef0f, 2023-11-25, custom)"
   sodipodi:docname="favicon.svg"
   inkscape:export-filename="LuxSCale.png"
   inkscape:export-xdpi="72"
   inkscape:export-ydpi="72"
   xmlns:inkscape="http://www.inkscape.org/namespaces/inkscape"
   xmlns:sodipodi="http://sodipodi.sourceforge.net/DTD/sodipodi-0.dtd"
   xmlns="http://www.w3.org/2000/svg"
   xmlns:svg="http://www.w3.org/2000/svg"><sodipodi:namedview
     id="namedview1"
     pagecolor="#ffffff"
     bordercolor="#000000"
     borderopacity="0.25"
     inkscape:showpageshadow="2"
     inkscape:pageopacity="0.0"
     inkscape:pagecheckerboard="0"
     inkscape:deskcolor="#d1d1d1"
     inkscape:document-units="mm"
     inkscape:zoom="0.73584456"
     inkscape:cx="356.05346"
     inkscape:cy="57.077272"
     inkscape:window-width="1920"
     inkscape:window-height="1048"
     inkscape:window-x="0"
     inkscape:window-y="0"
     inkscape:window-maximized="1"
     inkscape:current-layer="layer1" /><defs
     id="defs1" /><g
     inkscape:label="Layer 1"
     inkscape:groupmode="layer"
     id="layer1"
     transform="translate(109.38677,-325.90393)"><path
       id="rect1"
       style="fill:#eb1b26;fill-rule:evenodd;stroke-width:4.99999;stroke-linejoin:round"
       d="m -87.768942,325.90393 h 60.867901 c 11.976278,0 21.6178302,9.64155 21.6178302,21.61783 v 60.8679 c 0,11.97628 -9.6415522,21.61783 -21.6178302,21.61783 h -60.867901 c -11.976278,0 -21.617828,-9.64155 -21.617828,-21.61783 v -60.8679 c 0,-11.97628 9.64155,-21.61783 21.617828,-21.61783 z" /><path
       id="text67"
       style="font-weight:bold;font-size:66.5962px;line-height:1.25;font-family:Bison;-inkscape-font-specification:'Bison Bold';letter-spacing:0px;fill:#000000;stroke-width:0.264584"
       d="m -79.463526,337.22474 c -5.46113,0 -9.8603,1.55425 -13.197661,4.66407 -3.792457,3.64075 -5.689061,8.60963 -5.689061,14.90509 v 1.93343 c 0,3.5649 0.720961,6.90253 2.162087,10.01237 1.441137,3.10979 3.526168,5.87864 6.256729,8.30581 1.668686,1.44111 4.286245,3.1095 7.85115,5.00573 2.578867,1.44113 4.17117,2.42748 4.777964,2.95842 2.806414,2.57886 4.209409,5.61218 4.209409,9.10125 v 5.00662 c 0,2.80642 -0.568807,4.70215 -1.706541,5.68817 -0.910189,0.91019 -2.464453,1.36579 -4.664076,1.36579 -2.123773,0 -3.678921,-0.4556 -4.664958,-1.36579 -1.137734,-1.06189 -1.706541,-2.9576 -1.706541,-5.68817 v -10.35401 h -12.515223 v 10.35401 c 0,6.29546 1.896604,11.26345 5.689061,14.90422 3.337361,3.10981 7.736531,4.66494 13.197661,4.66494 5.461133,0 9.860307,-1.55513 13.197664,-4.66494 3.792453,-3.64077 5.688177,-8.60876 5.688177,-14.90422 v -5.00662 c 0,-7.28153 -2.805991,-13.42513 -8.418818,-18.43118 -1.516983,-1.36527 -4.247777,-3.10972 -8.191928,-5.23351 -2.199623,-1.21358 -3.678694,-2.12385 -4.437184,-2.73065 -2.806417,-2.50301 -4.20941,-5.49919 -4.20941,-8.98824 v -1.93343 c 0,-2.73057 0.568807,-4.62715 1.706541,-5.68906 0.986037,-0.9102 2.541185,-1.36488 4.664958,-1.36488 2.199623,0 3.753887,0.45468 4.664076,1.36488 1.137734,0.98604 1.706541,2.88264 1.706541,5.68906 v 6.94004 h 12.515224 v -6.94004 c 0,-6.29546 -1.895724,-11.26434 -5.688177,-14.90509 -3.337357,-3.10982 -7.736531,-4.66407 -13.197664,-4.66407 z m 44.25795,0 c -5.309434,0 -9.708608,1.55425 -13.197664,4.66407 -3.792452,3.79246 -5.689059,8.76132 -5.689059,14.90509 v 42.32363 c 0,6.14377 1.896607,11.11175 5.689059,14.90422 3.489056,3.10981 7.88823,4.66494 13.197664,4.66494 5.461131,0 9.860305,-1.55513 13.197663,-4.66494 3.792453,-3.64077 5.688178,-8.60876 5.688178,-14.90422 V 388.8774 h -12.515226 v 10.24013 c 0,2.80642 -0.530764,4.70215 -1.592652,5.68817 -0.986038,0.91019 -2.578342,1.36579 -4.777963,1.36579 -2.123775,0 -3.67892,-0.4556 -4.66496,-1.36579 -1.137733,-1.06189 -1.706539,-2.9576 -1.706539,-5.68817 V 356.7939 c 0,-2.73057 0.568806,-4.62715 1.706539,-5.68906 0.98604,-0.9102 2.541185,-1.36488 4.66496,-1.36488 2.199621,0 3.791925,0.45468 4.777963,1.36488 1.061888,0.98604 1.592652,2.88264 1.592652,5.68906 v 7.05395 h 12.515226 v -7.05395 c 0,-6.29546 -1.895725,-11.26434 -5.688178,-14.90509 -3.337358,-3.10982 -7.736532,-4.66407 -13.197663,-4.66407 z" /></g></svg>
