<?xml version="1.0" encoding="UTF-8" standalone="no"?>
<!-- Created with Inkscape (http://www.inkscape.org/) -->

<svg
   width="251.05177mm"
   height="71.360512mm"
   viewBox="0 0 251.05177 71.360517"
   version="1.1"
   id="svg1"
   xml:space="preserve"
   inkscape:version="1.4.2 (ebf0e94, 2025-05-08)"
   sodipodi:docname="logo.svg"
   inkscape:export-filename="LuxSCale.png"
   inkscape:export-xdpi="72"
   inkscape:export-ydpi="72"
   xmlns:inkscape="http://www.inkscape.org/namespaces/inkscape"
   xmlns:sodipodi="http://sodipodi.sourceforge.net/DTD/sodipodi-0.dtd"
   xmlns="http://www.w3.org/2000/svg"
   xmlns:svg="http://www.w3.org/2000/svg"><sodipodi:namedview
     id="namedview1"
     pagecolor="#ffffff"
     bordercolor="#000000"
     borderopacity="0.25"
     inkscape:showpageshadow="2"
     inkscape:pageopacity="0.0"
     inkscape:pagecheckerboard="0"
     inkscape:deskcolor="#d1d1d1"
     inkscape:document-units="mm"
     inkscape:zoom="0.52032067"
     inkscape:cx="347.8624"
     inkscape:cy="296.93227"
     inkscape:window-width="1920"
     inkscape:window-height="1048"
     inkscape:window-x="0"
     inkscape:window-y="0"
     inkscape:window-maximized="1"
     inkscape:current-layer="layer1" /><defs
     id="defs1"><linearGradient
       id="paint0_linear_958_15881"
       x1="-57.4049"
       y1="130.44099"
       x2="354.97"
       y2="30.368999"
       gradientUnits="userSpaceOnUse"
       gradientTransform="translate(711.20148,321.49779)"><stop
         stop-color="#439DDF"
         id="stop1" /><stop
         offset="0.524208"
         stop-color="#4F87ED"
         id="stop2" /><stop
         offset="0.781452"
         stop-color="#9476C5"
         id="stop3" /><stop
         offset="0.888252"
         stop-color="#BC688E"
         id="stop4" /><stop
         offset="1"
         stop-color="#D6645D"
         id="stop5" /></linearGradient></defs><g
     inkscape:label="Layer 1"
     inkscape:groupmode="layer"
     id="layer1"
     transform="translate(139.83384,-458.54116)"><g
       inkscape:label="Layer 1"
       id="layer1-5"
       transform="matrix(1.4965647,0,0,1.4965647,1322.1378,-559.64135)"
       style="stroke-width:0.668197"><path
         id="text7"
         style="font-weight:500;font-size:47.9957px;line-height:1.25;font-family:'IBM Plex Sans Arabic';-inkscape-font-specification:'IBM Plex Sans Arabic Medium';letter-spacing:0px;fill:#000000;stroke-width:0.176793"
         d="m -922.59479,690.87813 v 35.51669 h 5.23172 v -16.7504 c 0,-0.70393 0.14404,-1.32776 0.43201,-1.87172 0.31998,-0.54395 0.73552,-0.99162 1.24747,-1.34358 0.51196,-0.35197 1.08812,-0.60845 1.72806,-0.76843 0.67194,-0.19199 1.34396,-0.28784 2.0159,-0.28784 3.13572,0 4.70359,1.93574 4.70359,5.8074 v 15.21457 h 5.23172 v -15.83831 c 0,-3.10372 -0.7202,-5.48765 -2.16007,-7.1515 -1.40788,-1.69585 -3.39181,-2.54351 -5.95158,-2.54351 -1.91983,0 -3.43951,0.44766 -4.55941,1.34358 -1.08791,0.89592 -1.90397,2.01613 -2.44791,3.36001 h -0.23978 v -14.68696 z m 81.9769,0 v 30.33355 c 0,1.63186 0.43161,2.91164 1.29553,3.83955 0.89592,0.89592 2.23996,1.34359 4.0318,1.34359 h 3.35948 v -4.27157 h -3.4556 v -31.24512 z m -44.34819,9.98337 c -1.72785,0 -3.31178,0.30362 -4.75165,0.91157 -1.40787,0.60794 -2.60787,1.48825 -3.59978,2.64015 -0.99191,1.1199 -1.75979,2.49554 -2.30374,4.12739 -0.54395,1.59986 -0.81597,3.39156 -0.81597,5.37539 0,1.98382 0.27202,3.7921 0.81597,5.42396 0.54395,1.59986 1.31183,2.9755 2.30374,4.12739 0.99191,1.1199 2.19191,1.98363 3.59978,2.59158 1.43987,0.60794 3.0238,0.91208 4.75165,0.91208 1.72784,0 3.29571,-0.30414 4.70359,-0.91208 1.43987,-0.60795 2.65593,-1.47168 3.64784,-2.59158 0.99191,-1.15189 1.75978,-2.52753 2.30373,-4.12739 0.54395,-1.63186 0.81597,-3.44014 0.81597,-5.42396 0,-1.98383 -0.27202,-3.77553 -0.81597,-5.37539 -0.54395,-1.63185 -1.31182,-3.00749 -2.30373,-4.12739 -0.99191,-1.1519 -2.20797,-2.03221 -3.64784,-2.64015 -1.40788,-0.60795 -2.97575,-0.91157 -4.70359,-0.91157 z m 27.06966,0 c -1.72784,0 -3.31177,0.30362 -4.75165,0.91157 -1.40787,0.60794 -2.60787,1.48825 -3.59978,2.64015 -0.99191,1.1199 -1.75978,2.49554 -2.30373,4.12739 -0.54395,1.59986 -0.81597,3.39156 -0.81597,5.37539 0,1.98382 0.27202,3.7921 0.81597,5.42396 0.54395,1.59986 1.31182,2.9755 2.30373,4.12739 0.99191,1.1199 2.19191,1.98363 3.59978,2.59158 1.43988,0.60794 3.02381,0.91208 4.75165,0.91208 1.72785,0 3.29572,-0.30414 4.70359,-0.91208 1.43987,-0.60795 2.65541,-1.47168 3.64732,-2.59158 0.99192,-1.15189 1.76031,-2.52753 2.30426,-4.12739 0.54395,-1.63186 0.81545,-3.44014 0.81545,-5.42396 0,-1.98383 -0.2715,-3.77553 -0.81545,-5.37539 -0.54395,-1.63185 -1.31234,-3.00749 -2.30426,-4.12739 -0.99191,-1.1519 -2.20745,-2.03221 -3.64732,-2.64015 -1.40787,-0.60795 -2.97574,-0.91157 -4.70359,-0.91157 z m 38.92424,0 c -1.37587,0 -2.6396,0.17565 -3.7915,0.52761 -1.1199,0.35197 -2.09606,0.86389 -2.92798,1.53583 -0.79994,0.63994 -1.42377,1.43994 -1.87173,2.39985 -0.44796,0.92791 -0.67179,1.99993 -0.67179,3.21582 0,2.3038 0.71969,4.04783 2.15956,5.23173 1.47187,1.1519 3.48792,1.88765 6.04769,2.20761 l 2.30374,0.28784 c 1.31188,0.15999 2.22379,0.52838 2.73575,1.10433 0.54394,0.54395 0.81597,1.21545 0.81597,2.01538 0,1.0559 -0.38394,1.88803 -1.15187,2.49597 -0.73593,0.57595 -1.87168,0.86403 -3.40754,0.86403 -1.50387,0 -2.83185,-0.30414 -3.98374,-0.91209 -1.1199,-0.63995 -2.14373,-1.51974 -3.07165,-2.63963 l -3.36,3.07165 c 1.1839,1.47186 2.57612,2.62367 4.17597,3.4556 1.59986,0.83193 3.58328,1.24798 5.95106,1.24798 1.50387,0 2.86397,-0.19222 4.07986,-0.57619 1.21589,-0.38396 2.25578,-0.92749 3.1197,-1.63142 0.86393,-0.70394 1.51988,-1.53606 1.96784,-2.49597 0.47996,-0.99192 0.71985,-2.09554 0.71985,-3.31143 0,-2.01582 -0.63989,-3.61581 -1.91977,-4.79971 -1.24789,-1.21589 -3.24789,-2.03195 -5.99964,-2.44791 l -2.30373,-0.28784 c -1.34388,-0.22398 -2.31953,-0.57631 -2.92747,-1.05626 -0.60795,-0.47996 -0.91209,-1.19965 -0.91209,-2.15956 0,-0.92792 0.33575,-1.67973 1.00769,-2.25568 0.70394,-0.57595 1.77596,-0.86403 3.21582,-0.86403 1.34388,0 2.52781,0.28808 3.55172,0.86403 1.0559,0.54395 1.90409,1.19991 2.54403,1.96784 l 3.21531,-3.07165 c -1.1199,-1.24788 -2.39968,-2.22404 -3.83956,-2.92798 -1.40787,-0.70394 -3.2317,-1.05575 -5.4715,-1.05575 z m -65.9939,4.31963 c 1.79184,0 3.23172,0.55958 4.31963,1.67948 1.0879,1.0879 1.63194,2.73608 1.63194,4.94389 v 4.22351 c 0,2.2078 -0.54404,3.87153 -1.63194,4.99143 -1.08791,1.08791 -2.52779,1.63194 -4.31963,1.63194 -1.79184,0 -3.23174,-0.54403 -4.31964,-1.63194 -1.0879,-1.1199 -1.63194,-2.78363 -1.63194,-4.99143 v -4.22351 c 0,-2.20781 0.54404,-3.85599 1.63194,-4.94389 1.0879,-1.1199 2.5278,-1.67948 4.31964,-1.67948 z m 27.06966,0 c 1.79184,0 3.23174,0.55958 4.31964,1.67948 1.0879,1.0879 1.63194,2.73608 1.63194,4.94389 v 4.22351 c 0,2.2078 -0.54404,3.87153 -1.63194,4.99143 -1.0879,1.08791 -2.5278,1.63194 -4.31964,1.63194 -1.79184,0 -3.23173,-0.54403 -4.31963,-1.63194 -1.08791,-1.1199 -1.63194,-2.78363 -1.63194,-4.99143 v -4.22351 c 0,-2.20781 0.54403,-3.85599 1.63194,-4.94389 1.0879,-1.1199 2.52779,-1.67948 4.31963,-1.67948 z" /><path
         id="text8"
         style="font-weight:bold;font-size:66.5962px;line-height:1.25;font-family:Bison;-inkscape-font-specification:'Bison Bold';letter-spacing:0px;fill:#eb1b26;stroke-width:0.176793"
         d="m -965.82988,680.34647 c -3.19661,0 -5.77162,0.91028 -7.72511,2.73058 -2.21987,2.13108 -3.33003,5.03902 -3.33003,8.72402 v 1.13171 c 0,2.08668 0.422,4.04033 1.26556,5.86063 0.84355,1.82029 2.06451,3.44099 3.66282,4.86171 0.97675,0.84356 2.50839,1.82013 4.59507,2.93006 1.50951,0.84355 2.44155,1.4209 2.79673,1.73168 1.6427,1.50952 2.46445,3.28556 2.46445,5.32784 v 2.93005 c 0,1.64271 -0.33295,2.75235 -0.99891,3.32951 -0.53277,0.53278 -1.44305,0.79944 -2.73058,0.79944 -1.24313,0 -2.15342,-0.26666 -2.73058,-0.79944 -0.66596,-0.62156 -0.99891,-1.7312 -0.99891,-3.32951 v -6.0601 h -7.32565 v 6.0601 c 0,3.68499 1.11016,6.59293 3.33003,8.72401 1.95349,1.8203 4.5285,2.73059 7.72511,2.73059 3.19662,0 5.77162,-0.91029 7.72511,-2.73059 2.21987,-2.13108 3.33003,-5.03902 3.33003,-8.72401 v -2.93005 c 0,-4.26216 -1.64297,-7.85878 -4.92838,-10.78901 -0.88795,-0.79916 -2.48639,-1.82025 -4.79506,-3.06338 -1.28753,-0.71036 -2.15328,-1.24317 -2.59726,-1.59835 -1.6427,-1.46511 -2.46393,-3.21889 -2.46393,-5.26118 v -1.13171 c 0,-1.59832 0.33295,-2.70847 0.99891,-3.33003 0.57716,-0.53277 1.48745,-0.79892 2.73058,-0.79892 1.28753,0 2.19781,0.26615 2.73058,0.79892 0.66596,0.57717 0.99891,1.68732 0.99891,3.33003 v 4.06228 h 7.32565 v -4.06228 c 0,-3.685 -1.11016,-6.59294 -3.33003,-8.72402 -1.95349,-1.8203 -4.52849,-2.73058 -7.72511,-2.73058 z m 25.90591,0 c -3.10782,0 -5.68283,0.91028 -7.72511,2.73058 -2.21987,2.21988 -3.33003,5.12782 -3.33003,8.72402 v 24.77368 c 0,3.5962 1.11016,6.50414 3.33003,8.72401 2.04228,1.8203 4.61729,2.73059 7.72511,2.73059 3.19662,0 5.77162,-0.91029 7.72511,-2.73059 2.21987,-2.13108 3.32951,-5.03902 3.32951,-8.72401 v -5.99395 h -7.32565 v 5.99395 c 0,1.64271 -0.31068,2.75235 -0.93224,3.32951 -0.57717,0.53278 -1.5092,0.79944 -2.79673,0.79944 -1.24313,0 -2.15341,-0.26666 -2.73058,-0.79944 -0.66596,-0.62156 -0.99891,-1.7312 -0.99891,-3.32951 v -24.77368 c 0,-1.59832 0.33295,-2.70847 0.99891,-3.33003 0.57717,-0.53277 1.48745,-0.79892 2.73058,-0.79892 1.28753,0 2.21956,0.26615 2.79673,0.79892 0.62156,0.57717 0.93224,1.68732 0.93224,3.33003 v 4.12894 h 7.32565 v -4.12894 c 0,-3.685 -1.10964,-6.59294 -3.32951,-8.72402 -1.95349,-1.8203 -4.52849,-2.73058 -7.72511,-2.73058 z" /></g></g></svg>
