<?xml version="1.0" encoding="UTF-8" standalone="no"?>
<svg
   viewBox="0 0 422.77292 189.6725"
   version="1.1"
   id="svg2"
   sodipodi:docname="SClogo.svg"
   inkscape:version="1.3.2 (091e20ef0f, 2023-11-25, custom)"
   xmlns:inkscape="http://www.inkscape.org/namespaces/inkscape"
   xmlns:sodipodi="http://sodipodi.sourceforge.net/DTD/sodipodi-0.dtd"
   xmlns="http://www.w3.org/2000/svg"
   xmlns:svg="http://www.w3.org/2000/svg">
  <defs
     id="defs2" />
  <sodipodi:namedview
     id="namedview2"
     pagecolor="#ffffff"
     bordercolor="#000000"
     borderopacity="0.25"
     inkscape:showpageshadow="2"
     inkscape:pageopacity="0.0"
     inkscape:pagecheckerboard="0"
     inkscape:deskcolor="#d1d1d1"
     inkscape:zoom="3.1317049"
     inkscape:cx="211.38646"
     inkscape:cy="94.836522"
     inkscape:window-width="1920"
     inkscape:window-height="1048"
     inkscape:window-x="0"
     inkscape:window-y="0"
     inkscape:window-maximized="1"
     inkscape:current-layer="svg2" />
  <path
     style="fill:#eb1b26;fill-opacity:1;"
     d="M 189.06736,5.885212e-7 A 19.474835,19.474835 0 0 0 171.21748,11.687355 h -10.25052 v 1.839252 h -28.71683 c -10.97965,0 -20.13694,8.81579 -20.1369,19.735931 v 61.358685 c 0,10.920137 9.15725,19.728817 20.1369,19.728817 h 59.75186 a 5.4841043,5.4841043 0 0 0 5.48376,-5.48376 5.4841043,5.4841043 0 0 0 -5.48376,-5.48375 h -59.75186 c -5.25622,0 -9.16796,-3.895663 -9.16796,-8.761307 V 33.262538 c 0,-4.865604 3.91174,-8.766948 9.16796,-8.766948 h 28.71683 v 1.799567 h 9.86652 a 19.474835,19.474835 0 0 0 18.23388,12.653781 h 5.1437 V 5.885212e-7 Z m 39.93519,0 V 7.4590317 h -10.56087 c -1.76284,0 -3.18257,1.4183108 -3.18257,3.1811743 v 2.214747 c 0,1.762863 1.41973,3.181174 3.18257,3.181174 h 10.56087 v 6.876684 h -10.56087 c -1.76284,0 -3.18257,1.419699 -3.18257,3.182562 v 2.213316 c 0,1.762907 1.41973,3.182605 3.18257,3.182605 h 10.56087 v 7.457644 h 5.14226 a 19.474835,19.474835 0 0 0 18.23387,-12.653781 h 9.86654 V 24.49559 h 28.27754 c 5.25622,0 9.16938,3.901344 9.16938,8.766948 v 61.358685 c 0,4.865644 -3.91316,8.761307 -9.16938,8.761307 h -58.52468 a 5.4841043,5.4841043 0 0 0 -5.4838,5.48375 5.4841043,5.4841043 0 0 0 5.4838,5.48376 h 58.52468 c 10.97969,0 20.13693,-8.80868 20.13693,-19.728817 V 33.262538 c 0,-10.920141 -9.15724,-19.735931 -20.13693,-19.735931 h -28.27754 v -1.839252 h -10.2491 A 19.474835,19.474835 0 0 0 234.14481,5.885212e-7 Z"
     id="path1" />
  <path
     style="fill:#000000;fill-opacity:1"
     d="m 191.89429,45.987133 c -5.05234,0 -8.90629,1.510561 -11.56269,4.531551 -2.6043,2.96888 -3.90666,7.318315 -3.90666,13.047745 0,5.31274 2.23995,10.15743 6.71934,14.532643 l 5.78134,5.781344 c 2.08348,2.03131 3.51516,3.541911 4.29645,4.531548 0.83337,0.93757 1.511,2.135117 2.03179,3.593564 0.52089,1.40629 0.78091,3.202654 0.78091,5.390261 0,1.66673 -0.23426,2.865681 -0.7029,3.594841 -0.46876,0.67714 -1.3016,1.01454 -2.49959,1.01454 -2.13548,0 -3.20376,-1.66572 -3.20376,-4.999179 v -8.360212 h -13.20358 v 6.563511 c 0,6.71903 1.35401,11.58823 4.06247,14.60918 2.70846,3.021 7.1095,4.53155 13.20358,4.53155 5.57319,0 9.55783,-1.69284 11.95377,-5.07845 2.44806,-3.43764 3.67284,-8.46337 3.67284,-15.078258 0,-2.968877 -0.36461,-5.521991 -1.09396,-7.657484 -0.72919,-2.18761 -1.69257,-4.062819 -2.89053,-5.625362 -1.19801,-1.614703 -2.70855,-3.306256 -4.53154,-5.07717 l -7.81329,-7.5015 c -2.50013,-2.343904 -3.75086,-4.608435 -3.75086,-6.796042 0,-0.98964 0.26118,-1.772105 0.78219,-2.345051 0.52082,-0.572947 1.30204,-0.858711 2.34375,-0.858711 0.88547,0 1.56176,0.259923 2.03052,0.780719 0.52086,0.520877 0.78216,1.224495 0.78216,2.109952 l 0.078,4.609542 h 13.67265 c 0,-6.823257 -1.32825,-11.823182 -3.98468,-15.000429 -2.65634,-3.229276 -7.00565,-4.844643 -13.04758,-4.844643 z m 37.81384,0 c -5.67735,0 -9.84429,1.692885 -12.50069,5.078458 -2.65636,3.385574 -3.98448,8.412746 -3.98448,15.079706 v 30.938685 c 0,5.364808 1.45875,9.583598 4.37558,12.656658 2.96888,3.07307 6.90187,4.60938 11.79795,4.60938 11.30261,0 16.95424,-5.62441 16.95424,-16.874954 V 84.817118 h -13.51666 v 12.111044 c 0,3.385568 -1.04252,5.077008 -3.12594,5.077008 -1.04171,0 -1.82277,-0.39069 -2.3436,-1.1718 -0.52088,-0.83335 -0.78088,-2.134298 -0.78088,-3.905208 V 63.254626 c 0,-1.61466 0.20804,-2.839454 0.62489,-3.67284 0.46881,-0.833343 1.30163,-1.249794 2.49959,-1.249794 1.1459,0 1.95444,0.364648 2.42321,1.093973 0.46876,0.7292 0.70273,2.057315 0.70273,3.984482 v 9.921812 h 13.35939 V 61.76957 c 0,-5.104414 -1.51057,-9.011477 -4.53156,-11.71996 -3.02095,-2.70844 -7.00561,-4.062477 -11.95377,-4.062477 z m -93.89765,93.397377 v 5.84937 h 8.38997 v -5.84937 z m 75.59938,0 v 5.84937 h 8.39013 v -5.84937 z M 9.4907207,141.11045 c -3.0999245,7e-5 -5.4646524,0.92663 -7.0945259,2.7802 -1.5979464,1.82168 -2.3961883145896,4.49045 -2.3961883145896,8.00596 0,3.25989 1.3734292145896,6.23259 4.1219990145896,8.91724 l 3.548212,3.54661 c 1.2783322,1.2464 2.1561743,2.17441 2.6356115,2.78164 0.511332,0.57524 0.927226,1.30994 1.246903,2.20484 0.319614,0.86293 0.478876,1.96503 0.478876,3.30732 0,1.02266 -0.142956,1.7574 -0.430612,2.20483 -0.287749,0.4155 -0.799643,0.62345 -1.534746,0.62345 -1.3103214,0 -1.9653888,-1.02231 -1.9653888,-3.06772 v -5.1296 H 6.4854104e-6 v 4.0271 c 0,4.12275 0.8306669845896,7.11024 2.4925300145896,8.96388 1.6618629,1.85364 4.361764,2.78165 8.1009795,2.78165 3.419663,0 5.864115,-1.03863 7.334259,-3.11597 1.502103,-2.10933 2.254539,-5.19423 2.254539,-9.25301 0,-1.82167 -0.224393,-3.38702 -0.671716,-4.69734 -0.447385,-1.34233 -1.03894,-2.49299 -1.774012,-3.45173 -0.735041,-0.99074 -1.661645,-2.02946 -2.780186,-3.11612 l -4.793684,-4.60231 c -1.5340294,-1.43817 -2.3011532,-2.82793 -2.3011532,-4.17022 0,-0.60724 0.159387,-1.08671 0.4788767,-1.43826 0.3196453,-0.3515 0.7989888,-0.52712 1.4381238,-0.52712 0.5433537,0 0.9594027,0.15934 1.2470587,0.47888 0.319614,0.31962 0.479032,0.75042 0.479032,1.29369 l 0.04777,2.82845 h 8.388666 c 0,-4.18671 -0.814516,-7.25397 -2.444421,-9.20349 -1.629873,-1.98139 -4.298563,-2.97279 -8.0056331,-2.97285 h -1.556e-4 z m 113.5682393,0 c -3.48358,0 -6.04027,1.03859 -7.67021,3.11597 -1.6299,2.07737 -2.4457,5.16219 -2.4457,9.25301 v 18.98347 c 0,3.29181 0.89543,5.88103 2.68515,7.76667 1.82169,1.88556 4.23518,2.82828 7.23938,2.82828 6.93517,0 10.40214,-3.45231 10.40214,-10.35551 v -7.76651 h -8.29363 v 7.43074 c 0,2.07734 -0.63877,3.11597 -1.91713,3.11597 -0.6392,0 -1.1187,-0.23902 -1.43828,-0.71833 -0.31964,-0.5114 -0.47888,-1.31105 -0.47888,-2.39764 v -20.66116 c 0,-0.99079 0.12656,-1.74177 0.38242,-2.25308 0.28774,-0.51135 0.79964,-0.76656 1.53474,-0.76656 0.70308,0 1.19873,0.22277 1.48633,0.67024 0.28775,0.44743 0.4308,1.2632 0.4308,2.44572 v 6.08736 h 8.19732 v -7.09482 c 0,-3.13204 -0.92651,-5.52943 -2.78019,-7.1913 -1.85364,-1.66191 -4.29819,-2.49252 -7.33426,-2.49252 z m 135.81045,0 c -3.48354,0 -6.04024,1.03859 -7.67018,3.11597 -1.62991,2.07737 -2.44444,5.16219 -2.44444,9.25301 v 18.98347 c 0,3.29181 0.89561,5.88103 2.68533,7.76667 1.82167,1.88556 4.23374,2.82828 7.23793,2.82828 6.93517,0 10.40359,-3.45231 10.40359,-10.35551 v -7.76651 h -8.29363 v 7.43074 c 0,2.07734 -0.64023,3.11597 -1.9186,3.11597 -0.63916,0 -1.11735,-0.23902 -1.43697,-0.71833 -0.31962,-0.5114 -0.48033,-1.31105 -0.48033,-2.39764 v -20.66116 c 0,-0.99079 0.12831,-1.74177 0.38417,-2.25308 0.28774,-0.51135 0.79825,-0.76656 1.5333,-0.76656 0.70312,0 1.19868,0.22277 1.48634,0.67024 0.28774,0.44743 0.43225,1.2632 0.43225,2.44572 v 6.08736 h 8.19731 v -7.09482 c 0,-3.13204 -0.92656,-5.52943 -2.7802,-7.1913 -1.85364,-1.66191 -4.29955,-2.49252 -7.3357,-2.49252 z M 22.771155,141.25518 V 182.674 h 8.628089 v -26.55877 c 0,-0.70309 0.159387,-1.29331 0.478907,-1.77274 0.351511,-0.51132 0.816135,-0.76802 1.391447,-0.76802 0.671093,0 1.181648,0.24083 1.533158,0.71993 0.351511,0.47943 0.52711,1.10206 0.52711,1.86907 V 182.674 h 8.390129 v -27.03766 c 0,-2.62065 -0.607799,-4.68179 -1.822277,-6.18385 -1.214447,-1.50209 -3.003956,-2.25306 -5.369026,-2.25306 -2.524738,0 -4.234554,1.27772 -5.129448,3.83444 v -9.77869 z m 74.112865,0.23896 -8.148901,6.2e-4 v 7.43075 h -2.349418 v 6.37504 h 2.349418 v 21.90823 c 0,2.04542 0.414525,3.53253 1.24544,4.45935 0.830948,0.92686 2.349045,1.39002 4.55423,1.39002 0.862905,0 1.74221,-0.0809 2.637074,-0.24073 0.926822,-0.12793 1.630527,-0.25463 2.109964,-0.38256 v -5.75304 c -0.09606,0 -0.287781,0.0164 -0.575374,0.0479 -0.287718,0.0327 -0.591556,0.0478 -0.911139,0.0478 -0.415551,0 -0.670782,-0.14476 -0.766563,-0.43225 -0.09606,-0.28774 -0.144731,-0.7347 -0.144731,-1.34194 v -19.70324 h 2.39762 v -6.37504 h -2.39762 z m 135.81207,0 -8.15068,6.2e-4 v 7.43075 h -2.34939 v 6.37504 h 2.34939 v 21.90823 c 0,2.04542 0.41614,3.53253 1.24706,4.45935 0.83094,0.92686 2.34901,1.39002 4.55423,1.39002 0.8629,0 1.74206,-0.0809 2.63692,-0.24073 0.92686,-0.12793 1.62915,-0.25463 2.1085,-0.38256 v -5.75304 c -0.096,0 -0.28767,0.0164 -0.57521,0.0479 -0.28774,0.0327 -0.59155,0.0478 -0.91113,0.0478 -0.41555,0 -0.67076,-0.14476 -0.76657,-0.43225 -0.0961,-0.28774 -0.14312,-0.7347 -0.14312,-1.34194 v -19.70324 h 2.39603 v -6.37504 h -2.39603 z m -147.46095,5.6572 c -1.534061,0 -2.828045,0.38336 -3.882701,1.15058 -1.022696,0.73505 -1.742583,1.78996 -2.158041,3.1642 v -3.88398 H 70.805732 V 182.674 h 8.388666 v -26.84646 c 0,-0.44739 0.703799,-0.83099 2.109964,-1.15057 1.438186,-0.35151 2.748259,-0.52713 3.930778,-0.52713 z m 76.70186,0 c -1.53406,0 -2.82789,0.38336 -3.88251,1.15058 -1.02273,0.73505 -1.74131,1.78996 -2.15677,3.1642 v -3.88398 h -8.38994 V 182.674 h 8.38994 v -26.84646 c 0,-0.44739 0.70234,-0.83099 2.1085,-1.15057 1.43819,-0.35151 2.74826,-0.52713 3.93078,-0.52713 z m -104.746969,0.0482 c -3.259902,0 -5.831534,0.98996 -7.717168,2.9714 -1.853644,1.94957 -2.781462,4.58586 -2.781462,7.90963 v 14.09492 c 0,7.25479 3.499482,10.88248 10.49863,10.88248 6.999025,0 10.499751,-3.62769 10.499751,-10.88248 v -14.09492 c 0,-3.32377 -0.942724,-5.96006 -2.828295,-7.90963 -1.853675,-1.98144 -4.411677,-2.9714 -7.671456,-2.9714 z m 117.259069,0 c -2.74851,0 -4.90549,0.47948 -6.47151,1.43826 -1.53406,0.95875 -2.63599,2.39706 -3.30717,4.31463 -0.6392,1.8856 -0.95937,4.34651 -0.95937,7.38266 v 10.83295 c 0,4.02685 0.84691,7.01576 2.54076,8.96533 1.69382,1.94948 4.45848,2.9246 8.29363,2.9246 2.97222,0 5.38424,-0.81581 7.23792,-2.44572 1.8856,-1.66191 2.82972,-3.93099 2.82972,-6.8073 v -6.13544 h -8.53305 l 0.0466,5.896 c 0.0327,0.86294 -0.12761,1.56673 -0.47903,2.10996 -0.31961,0.54335 -0.8152,0.81481 -1.48635,0.81481 -0.67119,0 -1.18159,-0.27138 -1.53313,-0.81481 -0.31962,-0.57524 -0.4805,-1.2627 -0.4805,-2.06171 v -17.01808 c 0,-1.94949 0.68765,-2.92477 2.06189,-2.92477 0.7351,0 1.23066,0.25538 1.48633,0.76657 0.25585,0.47939 0.38418,1.18313 0.38418,2.10996 v 4.93823 h 8.53305 v -5.37033 c 0,-2.81242 -0.94266,-5.00183 -2.82826,-6.56785 -1.8856,-1.56598 -4.33152,-2.34795 -7.33572,-2.34795 z m 107.43233,0 c -3.25985,0 -5.83283,0.98996 -7.71844,2.9714 -1.85363,1.94957 -2.78019,4.58586 -2.78019,7.90963 v 14.09492 c 0,7.25479 3.49954,10.88248 10.49863,10.88248 6.99908,0 10.49846,-3.62769 10.49846,-10.88248 v -14.09492 c 0,-3.32377 -0.94284,-5.96006 -2.82844,-7.90963 -1.85364,-1.98144 -4.41018,-2.9714 -7.67002,-2.9714 z m 27.7079,0 c -1.69383,0 -3.00395,0.36737 -3.93077,1.10234 -0.92682,0.73505 -1.58189,1.85343 -1.96539,3.35556 v -4.07534 h -8.19731 v 35.0919 h 8.19731 v -24.78459 c 0,-1.18251 0.17575,-2.18875 0.52713,-3.01964 0.3515,-0.86293 0.95937,-1.29514 1.82226,-1.29514 0.67117,0 1.10192,0.30406 1.2937,0.91113 0.22357,0.60724 0.33593,1.40674 0.33593,2.39748 V 182.674 h 8.38867 v -25.21539 c 0,-1.08663 0.17703,-2.01448 0.52857,-2.78149 0.3515,-0.79901 0.92553,-1.19737 1.7245,-1.19737 1.15056,0 1.72579,1.13434 1.72579,3.40349 V 182.674 h 8.4382 l 0.0949,-25.64764 c 0,-3.19593 -0.54284,-5.62423 -1.62946,-7.28618 -1.05468,-1.69383 -2.95631,-2.5406 -5.70481,-2.5406 -1.53406,0 -2.73211,0.2877 -3.59501,0.8629 -0.86289,0.54331 -1.64626,1.42119 -2.34939,2.63563 -0.41547,-1.08663 -1.13388,-1.93339 -2.15659,-2.5406 -0.99074,-0.6392 -2.17396,-0.95793 -3.54821,-0.95793 z m 35.81018,0 c -2.14125,0 -3.81863,0.75082 -5.03311,2.25291 v -1.87035 h -8.53324 v 42.09036 h 8.53324 v -8.38852 c 1.08663,1.18248 2.68434,1.77403 4.79367,1.77403 2.20518,0 3.8516,-0.528 4.93823,-1.58267 1.08659,-1.08667 1.78888,-2.49262 2.10851,-4.21845 0.31962,-1.75776 0.48033,-4.01056 0.48033,-6.75906 v -12.99098 c 0,-3.22788 -0.54432,-5.75359 -1.63091,-7.57531 -1.05467,-1.82167 -2.94018,-2.73196 -5.65672,-2.73196 z m 20.51805,0 c -3.64335,0 -6.27968,0.7347 -7.90963,2.20483 -1.59794,1.47014 -2.39748,3.93084 -2.39748,7.38251 v 1.15057 h 8.15052 v -2.10979 c 0,-0.70304 0.15935,-1.26223 0.47889,-1.6777 0.3515,-0.41551 0.75139,-0.62361 1.19882,-0.62361 0.51135,0 0.94215,0.2567 1.29369,0.76801 0.38339,0.47943 0.57537,1.18165 0.57537,2.10851 v 3.49997 0.0965 l -2.30131,0.76657 c -2.62065,0.83098 -4.56956,1.59823 -5.84792,2.30132 -1.27837,0.67116 -2.28444,1.74211 -3.01948,3.21229 -0.70309,1.47005 -1.0557,3.57838 -1.0557,6.32696 0,3.35565 0.4956,5.94471 1.48634,7.76635 1.02271,1.78975 2.89194,2.68532 5.60848,2.68532 1.2464,0 2.31755,-0.39981 3.21245,-1.19882 0.92682,-0.79897 1.598,-1.91723 2.01347,-3.35541 v 4.17022 h 8.34188 v -26.74997 c 0,-2.78042 -0.91173,-4.9212 -2.73341,-6.42329 -1.82168,-1.53406 -4.18667,-2.30115 -7.09498,-2.30115 z m 26.7019,0 c -1.43818,0 -2.5888,0.44708 -3.45173,1.34194 -0.8629,0.89486 -1.46928,2.06176 -1.82082,3.49997 v -4.45935 h -8.39013 v 35.0919 h 8.39013 v -24.68826 c 0,-1.31033 0.1283,-2.349 0.38417,-3.11597 0.28774,-0.79901 0.8616,-1.19882 1.72449,-1.19882 0.63921,0 1.10385,0.27142 1.39147,0.81481 0.31962,0.54336 0.47888,1.19834 0.47888,1.96539 V 182.674 h 8.24556 v -27.0859 c 0,-2.68457 -0.57539,-4.74556 -1.72595,-6.18369 -1.11855,-1.47013 -2.86076,-2.20483 -5.22575,-2.20483 z m -256.80898,0.38256 v 35.0919 h 8.38997 v -35.09186 z m 51.63105,0 v 26.12798 c 0,3.10016 0.47947,5.43251 1.43825,6.99849 0.99074,1.56599 2.79503,2.3494 5.41567,2.3494 1.50205,0 2.63664,-0.32009 3.40367,-0.95938 0.76703,-0.63916 1.43673,-1.69391 2.01201,-3.16404 v 3.73941 h 8.39013 V 147.5821 h -8.34187 l -0.0483,24.44883 v 0.28784 c 0,1.34225 -0.11075,2.38072 -0.3343,3.11581 -0.22359,0.70308 -0.76803,1.0557 -1.63094,1.0557 -0.63913,0 -1.11863,-0.19159 -1.43824,-0.57521 -0.28775,-0.41551 -0.4308,-1.10289 -0.4308,-2.06171 v -1.82227 -24.44899 z m 23.96833,0 v 35.0919 h 8.39013 v -35.09186 z m 190.17493,0 5.46535,34.37354 c 0.0327,0.12793 0.0466,0.30314 0.0466,0.52696 0,0.47943 -0.2877,0.71849 -0.86289,0.71849 h -4.02581 v 5.32079 h 9.44292 c 1.47014,0 2.54113,-0.33505 3.21229,-1.00601 0.70309,-0.63916 1.16633,-1.64539 1.39002,-3.01964 l 6.51961,-36.91413 h -8.05275 l -1.87035,17.11441 -0.91113,8.72588 -0.76657,-8.72588 -1.58154,-17.11441 z m -344.394759,6.08881 c 1.310322,0 1.966665,1.02247 1.966665,3.06789 v 17.16248 c 0,0.83093 -0.160569,1.486 -0.480339,1.96539 -0.319614,0.47943 -0.815232,0.71848 -1.486326,0.71848 -0.671155,0 -1.165497,-0.23917 -1.485081,-0.71848 -0.319614,-0.47939 -0.480494,-1.13446 -0.480494,-1.96539 V 156.7388 c 0,-2.04542 0.65516,-3.06789 1.965575,-3.06789 z m 224.691399,0 c 1.31032,0 1.96522,1.02247 1.96522,3.06789 v 17.16248 c 0,0.83093 -0.16059,1.486 -0.48033,1.96539 -0.31962,0.47943 -0.81374,0.71848 -1.48489,0.71848 -0.67117,0 -1.16689,-0.23917 -1.48651,-0.71848 -0.31962,-0.47939 -0.47888,-1.13446 -0.47888,-1.96539 V 156.7388 c 0,-2.04542 0.65506,-3.06789 1.96539,-3.06789 z m 60.4502,0.0965 h 1.6e-4 c 0.79897,0 1.31089,0.31884 1.53459,0.95793 0.22357,0.63916 0.33592,1.567 0.33592,2.78148 v 14.90813 c 0,1.34224 -0.11195,2.36479 -0.33592,3.06788 -0.22358,0.70308 -0.71946,1.0557 -1.48651,1.0557 -0.79897,0 -1.3418,-0.32009 -1.62946,-0.95938 -0.25545,-0.67116 -0.38417,-1.59768 -0.38417,-2.78019 v -15.38862 c 0,-2.42892 0.65507,-3.64293 1.96539,-3.64293 z m 24.92787,10.25902 v 9.7787 c 0,0.76701 -0.14306,1.42207 -0.43081,1.96538 -0.25544,0.51132 -0.70261,0.76802 -1.34177,0.76802 -1.24644,0 -1.87051,-1.03863 -1.87051,-3.11596 v -4.50759 c 0,-1.31033 0.2877,-2.33272 0.86289,-3.06773 0.60724,-0.73508 1.5338,-1.34151 2.7802,-1.82082 z"
     id="path2" />
</svg>
